<mxfile host="app.diagrams.net" modified="2023-10-30T09:08:31.437Z" agent="Mozilla/5.0 (X11; Linux x86_64) AppleWebKit/537.36 (KHTML, like Gecko) Chrome/118.0.0.0 Safari/537.36" etag="pOo8vDyoqEk_XkVRRc-1" version="22.0.8" type="github">
  <diagram name="Page-1" id="sTu0KwII7Odr_S1mqN8S">
    <mxGraphModel dx="1114" dy="640" grid="1" gridSize="10" guides="1" tooltips="1" connect="1" arrows="1" fold="1" page="1" pageScale="1" pageWidth="827" pageHeight="1169" math="0" shadow="0">
      <root>
        <mxCell id="0" />
        <mxCell id="1" parent="0" />
        <mxCell id="m8FT9cvH0laz2Xrom1V6-1" value="SR-IOV operator GH repo" style="swimlane;whiteSpace=wrap;html=1;startSize=20;" vertex="1" parent="1">
          <mxGeometry x="20" y="45" width="1070" height="540" as="geometry" />
        </mxCell>
        <mxCell id="m8FT9cvH0laz2Xrom1V6-10" style="edgeStyle=orthogonalEdgeStyle;rounded=0;orthogonalLoop=1;jettySize=auto;html=1;exitX=1;exitY=0.25;exitDx=0;exitDy=0;entryX=0;entryY=0.5;entryDx=0;entryDy=0;" edge="1" parent="m8FT9cvH0laz2Xrom1V6-1" source="m8FT9cvH0laz2Xrom1V6-7" target="m8FT9cvH0laz2Xrom1V6-30">
          <mxGeometry relative="1" as="geometry">
            <mxPoint x="757" y="87.5" as="targetPoint" />
          </mxGeometry>
        </mxCell>
        <mxCell id="m8FT9cvH0laz2Xrom1V6-7" value="manifests/stable/" style="rounded=0;whiteSpace=wrap;html=1;" vertex="1" parent="m8FT9cvH0laz2Xrom1V6-1">
          <mxGeometry x="547" y="305" width="120" height="90" as="geometry" />
        </mxCell>
        <mxCell id="m8FT9cvH0laz2Xrom1V6-9" style="edgeStyle=orthogonalEdgeStyle;rounded=0;orthogonalLoop=1;jettySize=auto;html=1;exitX=1;exitY=0.5;exitDx=0;exitDy=0;entryX=0;entryY=0.5;entryDx=0;entryDy=0;" edge="1" parent="m8FT9cvH0laz2Xrom1V6-1" source="m8FT9cvH0laz2Xrom1V6-40" target="m8FT9cvH0laz2Xrom1V6-31">
          <mxGeometry relative="1" as="geometry">
            <mxPoint x="697" y="90" as="sourcePoint" />
            <mxPoint x="757" y="152.5" as="targetPoint" />
          </mxGeometry>
        </mxCell>
        <mxCell id="m8FT9cvH0laz2Xrom1V6-29" value="&lt;b style=&quot;border-color: var(--border-color);&quot;&gt;bundleci.Dockerfile&lt;/b&gt;" style="swimlane;fontStyle=0;childLayout=stackLayout;horizontal=1;startSize=26;fillColor=none;horizontalStack=0;resizeParent=1;resizeParentMax=0;resizeLast=0;collapsible=1;marginBottom=0;html=1;" vertex="1" parent="m8FT9cvH0laz2Xrom1V6-1">
          <mxGeometry x="797" y="205" width="250" height="78" as="geometry" />
        </mxCell>
        <mxCell id="m8FT9cvH0laz2Xrom1V6-30" value="COPY manifests/stable/*.yaml /manifests/" style="text;strokeColor=none;fillColor=none;align=left;verticalAlign=top;spacingLeft=4;spacingRight=4;overflow=hidden;rotatable=0;points=[[0,0.5],[1,0.5]];portConstraint=eastwest;whiteSpace=wrap;html=1;" vertex="1" parent="m8FT9cvH0laz2Xrom1V6-29">
          <mxGeometry y="26" width="250" height="26" as="geometry" />
        </mxCell>
        <mxCell id="m8FT9cvH0laz2Xrom1V6-31" value="COPY bundle/metadata /metadata/" style="text;strokeColor=none;fillColor=none;align=left;verticalAlign=top;spacingLeft=4;spacingRight=4;overflow=hidden;rotatable=0;points=[[0,0.5],[1,0.5]];portConstraint=eastwest;whiteSpace=wrap;html=1;" vertex="1" parent="m8FT9cvH0laz2Xrom1V6-29">
          <mxGeometry y="52" width="250" height="26" as="geometry" />
        </mxCell>
        <mxCell id="m8FT9cvH0laz2Xrom1V6-39" value="bunlde/" style="swimlane;fontStyle=0;childLayout=stackLayout;horizontal=1;startSize=30;horizontalStack=0;resizeParent=1;resizeParentMax=0;resizeLast=0;collapsible=1;marginBottom=0;whiteSpace=wrap;html=1;" vertex="1" parent="m8FT9cvH0laz2Xrom1V6-1">
          <mxGeometry x="547" y="55" width="140" height="120" as="geometry" />
        </mxCell>
        <mxCell id="m8FT9cvH0laz2Xrom1V6-40" value="metadata/" style="text;strokeColor=none;fillColor=none;align=left;verticalAlign=middle;spacingLeft=4;spacingRight=4;overflow=hidden;points=[[0,0.5],[1,0.5]];portConstraint=eastwest;rotatable=0;whiteSpace=wrap;html=1;" vertex="1" parent="m8FT9cvH0laz2Xrom1V6-39">
          <mxGeometry y="30" width="140" height="30" as="geometry" />
        </mxCell>
        <mxCell id="m8FT9cvH0laz2Xrom1V6-41" value="manifests/" style="text;strokeColor=none;fillColor=none;align=left;verticalAlign=middle;spacingLeft=4;spacingRight=4;overflow=hidden;points=[[0,0.5],[1,0.5]];portConstraint=eastwest;rotatable=0;whiteSpace=wrap;html=1;" vertex="1" parent="m8FT9cvH0laz2Xrom1V6-39">
          <mxGeometry y="60" width="140" height="30" as="geometry" />
        </mxCell>
        <mxCell id="m8FT9cvH0laz2Xrom1V6-42" value="tests/scorecard/" style="text;strokeColor=none;fillColor=none;align=left;verticalAlign=middle;spacingLeft=4;spacingRight=4;overflow=hidden;points=[[0,0.5],[1,0.5]];portConstraint=eastwest;rotatable=0;whiteSpace=wrap;html=1;" vertex="1" parent="m8FT9cvH0laz2Xrom1V6-39">
          <mxGeometry y="90" width="140" height="30" as="geometry" />
        </mxCell>
        <mxCell id="m8FT9cvH0laz2Xrom1V6-34" value="&lt;b style=&quot;border-color: var(--border-color);&quot;&gt;bundleci.Dockerfile&lt;/b&gt;" style="swimlane;fontStyle=0;childLayout=stackLayout;horizontal=1;startSize=26;fillColor=none;horizontalStack=0;resizeParent=1;resizeParentMax=0;resizeLast=0;collapsible=1;marginBottom=0;html=1;" vertex="1" parent="m8FT9cvH0laz2Xrom1V6-1">
          <mxGeometry x="797" y="77" width="250" height="108" as="geometry" />
        </mxCell>
        <mxCell id="m8FT9cvH0laz2Xrom1V6-35" value="&lt;div&gt;COPY bundle/manifests /manifests/&lt;/div&gt;" style="text;strokeColor=none;fillColor=none;align=left;verticalAlign=top;spacingLeft=4;spacingRight=4;overflow=hidden;rotatable=0;points=[[0,0.5],[1,0.5]];portConstraint=eastwest;whiteSpace=wrap;html=1;" vertex="1" parent="m8FT9cvH0laz2Xrom1V6-34">
          <mxGeometry y="26" width="250" height="26" as="geometry" />
        </mxCell>
        <mxCell id="m8FT9cvH0laz2Xrom1V6-36" value="&lt;div&gt;COPY bundle/metadata /metadata/&lt;/div&gt;" style="text;strokeColor=none;fillColor=none;align=left;verticalAlign=top;spacingLeft=4;spacingRight=4;overflow=hidden;rotatable=0;points=[[0,0.5],[1,0.5]];portConstraint=eastwest;whiteSpace=wrap;html=1;" vertex="1" parent="m8FT9cvH0laz2Xrom1V6-34">
          <mxGeometry y="52" width="250" height="26" as="geometry" />
        </mxCell>
        <mxCell id="m8FT9cvH0laz2Xrom1V6-37" value="COPY bundle/tests/scorecard /tests/scorecard/" style="text;strokeColor=none;fillColor=none;align=left;verticalAlign=middle;spacingLeft=4;spacingRight=4;overflow=hidden;points=[[0,0.5],[1,0.5]];portConstraint=eastwest;rotatable=0;whiteSpace=wrap;html=1;" vertex="1" parent="m8FT9cvH0laz2Xrom1V6-34">
          <mxGeometry y="78" width="250" height="30" as="geometry" />
        </mxCell>
        <mxCell id="m8FT9cvH0laz2Xrom1V6-43" style="edgeStyle=orthogonalEdgeStyle;rounded=0;orthogonalLoop=1;jettySize=auto;html=1;exitX=1;exitY=0.5;exitDx=0;exitDy=0;entryX=0;entryY=0.5;entryDx=0;entryDy=0;" edge="1" parent="m8FT9cvH0laz2Xrom1V6-1" source="m8FT9cvH0laz2Xrom1V6-40" target="m8FT9cvH0laz2Xrom1V6-36">
          <mxGeometry relative="1" as="geometry" />
        </mxCell>
        <mxCell id="m8FT9cvH0laz2Xrom1V6-44" style="edgeStyle=orthogonalEdgeStyle;rounded=0;orthogonalLoop=1;jettySize=auto;html=1;exitX=1;exitY=0.5;exitDx=0;exitDy=0;entryX=0;entryY=0.5;entryDx=0;entryDy=0;" edge="1" parent="m8FT9cvH0laz2Xrom1V6-1" source="m8FT9cvH0laz2Xrom1V6-41" target="m8FT9cvH0laz2Xrom1V6-35">
          <mxGeometry relative="1" as="geometry">
            <Array as="points">
              <mxPoint x="707" y="130" />
              <mxPoint x="707" y="116" />
            </Array>
          </mxGeometry>
        </mxCell>
        <mxCell id="m8FT9cvH0laz2Xrom1V6-45" style="edgeStyle=orthogonalEdgeStyle;rounded=0;orthogonalLoop=1;jettySize=auto;html=1;exitX=1;exitY=0.5;exitDx=0;exitDy=0;" edge="1" parent="m8FT9cvH0laz2Xrom1V6-1" source="m8FT9cvH0laz2Xrom1V6-42" target="m8FT9cvH0laz2Xrom1V6-37">
          <mxGeometry relative="1" as="geometry">
            <Array as="points">
              <mxPoint x="707" y="160" />
              <mxPoint x="707" y="170" />
            </Array>
          </mxGeometry>
        </mxCell>
        <mxCell id="m8FT9cvH0laz2Xrom1V6-2" value="openshift/release" style="swimlane;whiteSpace=wrap;html=1;" vertex="1" parent="1">
          <mxGeometry x="1150" y="190" width="200" height="200" as="geometry" />
        </mxCell>
        <mxCell id="m8FT9cvH0laz2Xrom1V6-3" value="openshift/ocp-build-data" style="swimlane;whiteSpace=wrap;html=1;" vertex="1" parent="1">
          <mxGeometry x="1170" y="510" width="200" height="200" as="geometry" />
        </mxCell>
      </root>
    </mxGraphModel>
  </diagram>
</mxfile>
